<?xml version="1.0" encoding="utf-8"?>
<!-- Svg Vector Icons : http://www.onlinewebfonts.com/icon -->
<!DOCTYPE svg PUBLIC "-//W3C//DTD SVG 1.1//EN" "http://www.w3.org/Graphics/SVG/1.1/DTD/svg11.dtd">
<svg version="1.1" xmlns="http://www.w3.org/2000/svg" xmlns:xlink="http://www.w3.org/1999/xlink" x="0px" y="0px" viewBox="0 0 1000 1000" enable-background="new 0 0 1000 1000" xml:space="preserve" width="100" height="100">
<metadata> Svg Vector Icons : http://www.onlinewebfonts.com/icon </metadata>
<g fill="#ffffff"><path d="M800.7,671.6c161.5-45.1,183.4-213.1,189.3-241c-204.2-42.1-248.1-187-248.1-187c-32.6-195.9-171-220.8-171-220.8s11.3,115.2-80.7,115.2c-92,0-79.5-115.2-79.5-115.2C284.2,86.3,284.2,172,258.7,246.5C216.7,369.3,108.5,421.6,10,459c19,113.4,68.3,175.7,215.5,235.7c-11.9,28.5-86.3,96.5-114,122.9c154.9,10.7,292.6,33.8,401.3,159.7C632.1,847.8,797.7,814,906.9,794.4C827.4,733.3,799.5,683.4,800.7,671.6z M768.7,699.4c4,5.3-20.9,14.2-46.3,14.2c-25.4,0-30.9-4-33.1-11.1c-2.2-7.1,17.5-6.2,37.1-6.6C746,695.5,764.7,694.1,768.7,699.4z M748.7,613.5c-9.4,33.8-45.9,50.8-61,57.4c-8,16-13.8,31.6-13.8,31.6s-53.9-62.8-140.7-47.2c4-9.3,5.8-29.4-44.1-13.4c-0.4-29.8,3.1-154.5,3.1-154.5s10.8-15.2,36.5,6.7c11,9.3-3.6,84.1,74.3,84.1c77.9,0,80.6-61.9,80.6-61.9l33.4-1.3c1,12.9-3.1,41-3.1,41S758.1,579.7,748.7,613.5z M512.8,735.5c-12-9.8-3.1-22.7,5.3-21.8s25.8,9.8,58.3,29.8c32.5,20,68.6,16,66.3,24c-7.2,25.8-34.7,73-92.6,73.9c-57.9,0.9-51.2-65-38.2-77C524.9,752.4,524.8,745.3,512.8,735.5z M463.6,198.7h33.3c24.9,0,69.8,27.2,69.8,100.7c0,33.9-15.5,62.3-55.1,62.3h-50.8c-4.9,0-10.8,3.7-10.8-69.8C450.1,195.2,460.3,198.7,463.6,198.7z M360.2,434.7c8.9-4.2,54-28.5,139.8-28.5c198.5,0,220.5,83.7,220.5,83.7s-76-10.1-203-25.5C390.5,448.9,351.3,438.8,360.2,434.7z M322.5,458.5c15.1-3.1,163.1,23.2,163.1,23.2S365,508.9,324.4,500C283.9,491.1,311.8,460.7,322.5,458.5z M305,574.8c13.3,12.3-8.6,18.4-8.6,48.7c0,30.3,43.6,41.6,32.3,55.8c-9.1,11.5-64.1-10.7-64.7-59.4C264.1,619.9,281.9,553.4,305,574.8z M330.6,702.4c8.2,8.3-65.4,38.6-80.8,9.5C234.4,682.8,330.6,702.4,330.6,702.4z M658.2,832.4c-69.4,33.8-146,97.3-146,97.3s-64.1-42.1-140.1-85.5c-76-43.3-182.2-54-182.2-54l42.7-55.2c29.7,45.7,98.5,36.2,130.6,34.4c4.2,8.3,68.9,107.4,147.2,107.4S641,792,657,760c97.9,9.5,125.2-40.4,125.2-40.4l48.7,56.4C830.9,776,727.6,798.6,658.2,832.4z"/><path d="M504.6,336.7c10.6,0,30.4-10,30.4-45.3c0-48.4-25.1-69.6-37.8-69.6c-13.7,0-16.5,25.3-16.5,37.6v28C480.7,331.6,493.6,336.7,504.6,336.7z"/><path d="M709.5,585c-6.2,2.7,0.4,22.3-4,33.8c-4.5,11.6-12.5,28-5.3,30.3c7.1,2.2,27.6-10.2,28-29.4C728.7,600.6,715.8,582.4,709.5,585z"/></g>
</svg>